<svg width="24" height="24" viewBox="0 0 24 24" fill="none" xmlns="http://www.w3.org/2000/svg">
<mask id="mask0_257_281" style="mask-type:alpha" maskUnits="userSpaceOnUse" x="0" y="0" width="24" height="24">
<rect width="24" height="24" fill="#D9D9D9"/>
</mask>
<g mask="url(#mask0_257_281)">
<path d="M11 22C10.1667 21.9167 9.36672 21.7125 8.60005 21.3875C7.83338 21.0625 7.10005 20.6333 6.40005 20.1L7.80005 18.65C8.28338 19 8.79588 19.2833 9.33755 19.5C9.87922 19.7167 10.4334 19.8667 11 19.95V22ZM13 22V19.95C14.7334 19.7 16.1667 18.9208 17.3 17.6125C18.4334 16.3042 19 14.7833 19 13.05C19 11.1 18.3209 9.44582 16.9625 8.08749C15.6042 6.72915 13.95 6.04999 12 6.04999H11.8L13.4 7.64999L12 9.04999L8.00005 5.04999L12 1.04999L13.4 2.49999L11.85 4.04999H12C13.25 4.04999 14.4209 4.28749 15.5125 4.76249C16.6042 5.23749 17.5542 5.87915 18.3625 6.68749C19.1709 7.49582 19.8125 8.44582 20.2875 9.53749C20.7626 10.6292 21 11.8 21 13.05C21 15.3333 20.2417 17.3208 18.725 19.0125C17.2084 20.7042 15.3 21.7 13 22ZM4.95005 18.65C4.41672 17.95 3.98755 17.2167 3.66255 16.45C3.33755 15.6833 3.13338 14.8833 3.05005 14.05H5.10005C5.18338 14.6167 5.33338 15.1708 5.55005 15.7125C5.76672 16.2542 6.05005 16.7667 6.40005 17.25L4.95005 18.65ZM3.05005 12.05C3.15005 11.2 3.35838 10.3833 3.67505 9.59999C3.99172 8.81665 4.41672 8.09999 4.95005 7.44999L6.40005 8.84999C6.05005 9.33332 5.76672 9.84582 5.55005 10.3875C5.33338 10.9292 5.18338 11.4833 5.10005 12.05H3.05005Z" fill="#1C1B1F"/>
</g>
</svg>
