<svg width="24" height="24" viewBox="0 0 24 24" fill="none" xmlns="http://www.w3.org/2000/svg">
<mask id="mask0_257_260" style="mask-type:alpha" maskUnits="userSpaceOnUse" x="0" y="0" width="24" height="24">
<rect width="24" height="24" fill="#D9D9D9"/>
</mask>
<g mask="url(#mask0_257_260)">
<path d="M13.05 22V19.95C13.6167 19.8667 14.1709 19.7167 14.7125 19.5C15.2542 19.2833 15.7667 19 16.25 18.65L17.65 20.1C16.95 20.6333 16.2167 21.0625 15.45 21.3875C14.6834 21.7125 13.8834 21.9167 13.05 22ZM11.05 22C8.75005 21.7 6.84172 20.7042 5.32505 19.0125C3.80838 17.3208 3.05005 15.3333 3.05005 13.05C3.05005 11.8 3.28755 10.6292 3.76255 9.53749C4.23755 8.44582 4.87922 7.49582 5.68755 6.68749C6.49588 5.87915 7.44588 5.23749 8.53755 4.76249C9.62922 4.28749 10.8 4.04999 12.05 4.04999H12.2L10.65 2.49999L12.05 1.04999L16.05 5.04999L12.05 9.04999L10.65 7.64999L12.25 6.04999H12.05C10.1 6.04999 8.44588 6.72915 7.08755 8.08749C5.72922 9.44582 5.05005 11.1 5.05005 13.05C5.05005 14.7833 5.61672 16.3042 6.75005 17.6125C7.88338 18.9208 9.31672 19.7 11.05 19.95V22ZM19.1 18.65L17.65 17.25C18 16.7667 18.2834 16.2542 18.5 15.7125C18.7167 15.1708 18.8667 14.6167 18.95 14.05H21C20.9167 14.8833 20.7125 15.6833 20.3875 16.45C20.0625 17.2167 19.6334 17.95 19.1 18.65ZM21 12.05H18.95C18.8667 11.4833 18.7167 10.9292 18.5 10.3875C18.2834 9.84582 18 9.33332 17.65 8.84999L19.1 7.44999C19.6334 8.09999 20.0584 8.81665 20.375 9.59999C20.6917 10.3833 20.9 11.2 21 12.05Z" fill="#1C1B1F"/>
</g>
</svg>
