<svg width="24" height="24" viewBox="0 0 24 24" fill="none" xmlns="http://www.w3.org/2000/svg">
<mask id="mask0_257_287" style="mask-type:alpha" maskUnits="userSpaceOnUse" x="0" y="0" width="24" height="24">
<rect x="24" y="1.04907e-06" width="24" height="24" transform="rotate(90 24 1.04907e-06)" fill="#D9D9D9"/>
</mask>
<g mask="url(#mask0_257_287)">
<path d="M3 9L3 5C3 4.45 3.19583 3.97917 3.5875 3.5875C3.97917 3.19583 4.45 3 5 3L19 3C19.55 3 20.0208 3.19583 20.4125 3.5875C20.8042 3.97917 21 4.45 21 5L21 9L19 9L19 5L5 5L5 9L3 9ZM1 11L23 11L23 13L1 13L1 11ZM3 15L5 15L5 17L3 17L3 15ZM19 15L21 15L21 17L19 17L19 15ZM3 19L5 19L5 21C4.45 21 3.97917 20.8042 3.5875 20.4125C3.19583 20.0208 3 19.55 3 19ZM7 19L9 19L9 21L7 21L7 19ZM11 19L13 19L13 21L11 21L11 19ZM15 19L17 19L17 21L15 21L15 19ZM19 19L21 19C21 19.55 20.8042 20.0208 20.4125 20.4125C20.0208 20.8042 19.55 21 19 21L19 19Z" fill="#1C1B1F"/>
</g>
</svg>
